<svg width="1347" height="602" viewBox="0 0 1347 602" fill="none" xmlns="http://www.w3.org/2000/svg">
<path fill-rule="evenodd" clip-rule="evenodd" d="M272 44C272 19.6995 291.699 0 316 0H1029C1053.3 0 1073 19.6995 1073 44V298C1073 322.301 1092.7 342 1117 342H1303C1327.3 342 1347 361.699 1347 386V558C1347 582.301 1327.3 602 1303 602H1105C1080.7 602 1061 582.301 1061 558V386C1061 361.699 1041.3 342 1017 342H330C305.699 342 286 361.699 286 386V542C286 566.301 266.301 586 242 586H44C19.6995 586 0 566.301 0 542V370C0 345.699 19.6995 326 44 326H228C252.301 326 272 306.301 272 282V44Z" fill="#234BFB"/>
</svg>
